<?xml version="1.0" standalone="no"?>
<!DOCTYPE svg PUBLIC "-//W3C//DTD SVG 20010904//EN"
 "http://www.w3.org/TR/2001/REC-SVG-20010904/DTD/svg10.dtd">
<svg version="1.0" xmlns="http://www.w3.org/2000/svg"
 width="512.000000pt" height="512.000000pt" viewBox="0 0 512.000000 512.000000"
 preserveAspectRatio="xMidYMid meet">
<metadata>
Created by potrace 1.11, written by Peter Selinger 2001-2013
</metadata>
<g transform="translate(0.000000,512.000000) scale(0.100000,-0.100000)"
fill="#000000" stroke="none">
<path d="M2495 4873 c-36 -5 -121 -29 -192 -54 -328 -117 -571 -406 -638 -759
-10 -55 -12 -122 -9 -250 3 -96 7 -223 8 -281 5 -175 -28 -345 -104 -531 -17
-40 -42 -120 -57 -178 -24 -93 -27 -124 -28 -270 0 -148 3 -200 21 -333 4 -31
0 -44 -24 -75 -43 -56 -57 -83 -127 -257 l-65 -160 0 177 0 178 -57 142 c-31
79 -65 154 -76 168 -42 56 -128 76 -190 44 -41 -22 -55 -36 -72 -78 -23 -55
-18 -86 30 -184 l44 -92 -163 0 c-197 0 -246 8 -354 60 -97 46 -130 49 -169
16 l-28 -24 -2 -160 -2 -160 29 -41 c23 -31 53 -52 128 -90 136 -68 179 -79
316 -80 l89 -1 -6 -247 c-3 -137 -8 -257 -10 -268 -3 -11 -8 -67 -12 -125 -4
-58 -9 -121 -11 -140 -24 -302 -24 -361 3 -420 25 -56 70 -103 125 -132 35
-18 60 -22 133 -23 81 0 95 3 137 28 55 32 71 53 139 183 28 54 63 119 76 144
14 25 46 83 71 130 25 47 65 121 89 165 24 44 51 94 59 110 8 17 27 53 42 80
15 28 52 95 81 150 30 55 60 109 68 120 14 19 15 19 8 -5 -4 -13 -11 -50 -14
-81 -18 -146 19 -294 103 -418 l36 -53 0 -319 0 -319 720 0 720 0 0 200 0 200
28 -5 c15 -3 38 -7 52 -10 14 -3 48 -9 75 -15 28 -5 95 -19 150 -30 59 -12
140 -20 197 -20 l96 0 44 -83 c35 -65 54 -89 91 -114 126 -85 284 -41 354 98
l32 64 63 11 c35 7 86 15 113 18 111 15 145 40 145 109 0 38 5 44 50 50 l25 4
3 682 2 683 -27 -6 c-16 -4 -98 -18 -183 -31 -159 -26 -186 -31 -242 -41 -18
-3 -96 -16 -174 -29 -148 -24 -182 -36 -238 -86 -41 -36 -34 -45 -102 127 -49
124 -60 146 -106 205 -23 30 -27 44 -23 75 20 163 25 222 25 319 0 184 -27
314 -108 515 -31 80 -67 212 -78 295 -4 28 -6 124 -4 215 9 382 5 479 -19 569
-101 382 -399 663 -779 735 -68 13 -261 18 -327 9z"/>
</g>
</svg>
